PathFileType	3	(X/Y/Z)	D:\minhoCalibration\240510\subject4_KPNP\preferred\preferred02.trc
DataRate	CameraRate	NumFrames	NumMarkers	Units	OrigDataRate	OrigDataStartFrame	OrigNumFrames
200.0	200.0	37	10	mm	200.0	528	77	
Frame#	Time	Left_Ankle_Outer1			Left_Ankle_Inner1			Left_Knee_Outer1			Left_Knee_Inner1			Left_Wrist1			Right_Wrist1			Right_Knee_Inner1			Right_Knee_Outer1			Right_Ankle_Inner1			Right_Ankle_Outer1			
		X1	Y1	Z1	X2	Y2	Z2	X3	Y3	Z3	X4	Y4	Z4	X5	Y5	Z5	X6	Y6	Z6	X7	Y7	Z7	X8	Y8	Z8	X9	Y9	Z9	X10	Y10	Z10	
528	2.63	-540.83875	551.93451	1355.5667	-466.73071	495.3378	1309.3286	-592.09204	777.24542	914.05225	-483.87372	740.16718	900.86932	-459.71735	1116.1703	1207.3164	-209.55486	939.28845	1399.2386	-300.88727	528.92676	1153.7242	-221.52635	536.3692	1233.7462	-434.91528	87.133255	1306.1593	-388.80057	95.591606	1338.2302
529	2.635	-556.51196	569.64624	1334.8571	-480.90552	511.98428	1293.2256	-576.01471	796.99585	892.5274	-469.61832	756.8092	885.44604	-452.52682	1123.3336	1201.5802	-213.24831	940.3208	1403.1584	-296.72275	530.55798	1152.704	-220.07932	538.40436	1235.6055	-435.97443	90.047157	1303.385	-387.4382	94.542564	1330.2993
530	2.64	-572.31586	588.0451	1312.9015	-496.21396	528.79218	1276.0869	-558.37219	816.77478	872.20178	-453.45462	773.14008	871.11511	-445.1572	1130.5396	1195.9429	-217.23398	940.93182	1407.2285	-291.86542	532.42981	1151.1161	-218.58113	540.26001	1237.053	-437.73541	93.302155	1300.6943	-392.3396	101.35662	1334.5828
531	2.645	-588.26776	607.10706	1290.1257	-511.83026	545.276	1258.2892	-539.62836	836.60272	853.47833	-436.38211	789.74054	858.08148	-438.09897	1137.0492	1191.4879	-221.5757	941.32056	1411.2687	-287.19055	534.35242	1149.6724	-217.07658	542.15033	1238.324	-438.71625	96.377289	1296.783	-394.64789	103.83412	1331.806
532	2.65	-604.42761	627.01477	1266.7946	-528.6864	562.09698	1239.4517	-520.38361	856.45844	836.27679	-419.07803	805.34088	846.56299	-430.80316	1143.6117	1186.8734	-226.68216	941.24115	1415.0233	-282.36911	536.18158	1148.1315	-215.75008	543.94794	1239.1165	-440.67288	99.752472	1293.2047	-397.34232	107.07738	1329.8831
533	2.655	-620.21533	647.23975	1242.103	-545.53101	579.26019	1219.5409	-499.02365	875.00867	821.88831	-401.33844	819.71552	836.6012	-423.62405	1149.6488	1183.0925	-232.48587	940.96777	1418.9492	-276.32587	537.78418	1145.7008	-214.57385	545.75897	1239.7417	-441.7981	103.01715	1288.6519	-399.49728	110.47408	1326.891
534	2.66	-635.89362	667.93298	1216.7681	-563.67334	596.30719	1197.9424	-477.16898	893.38629	808.57758	-382.88663	834.07483	827.92072	-416.70227	1155.4923	1179.8988	-239.29256	940.26013	1421.7206	-270.71594	539.54425	1143.7332	-213.44104	547.5462	1240.2382	-442.93582	106.36442	1284.6555	-402.27991	113.30498	1323.5468
535	2.665	-651.51086	689.14752	1189.8538	-582.16541	614.42908	1175.0619	-455.25677	911.15192	797.80035	-366.10193	846.24493	821.79529	-409.76544	1160.866	1177.0095	-246.48004	939.04266	1424.4875	-264.9176	540.83887	1141.5055	-212.62959	549.34564	1240.2736	-443.80814	108.85674	1278.7578	-404.47885	116.30799	1319.6554
536	2.67	-666.63019	711.02344	1161.4949	-600.98236	632.80035	1149.9879	-432.39282	928.05878	789.04309	-348.66702	857.82666	816.63892	-402.78619	1165.7889	1174.4955	-254.32002	937.92761	1427.3727	-259.39142	542.54718	1140.4454	-211.50237	551.29749	1240.9537	-444.6788	111.90337	1273.5803	-406.43143	119.22274	1315.5977
537	2.675	-681.32812	733.45178	1131.6207	-619.3952	651.97412	1122.9939	-409.59006	943.49506	782.52594	-331.66229	868.23724	812.92474	-396.2359	1170.0769	1172.4445	-262.668	936.50934	1429.6165	-253.71936	544.43451	1139.1801	-210.96634	553.21326	1241.201	-444.19678	114.78772	1268.3593	-408.2576	121.8605	1311.3975
538	2.68	-695.27264	756.49261	1099.9537	-637.60205	671.90448	1093.2161	-386.50812	958.09003	777.72272	-314.9429	877.29529	810.12555	-389.84732	1174.1613	1170.5522	-271.62158	934.9812	1431.4344	-249.66328	545.73346	1138.8563	-210.9478	554.95782	1240.8644	-446.02344	117.91458	1264.2545	-409.82812	124.14471	1307.1266
539	2.685	-708.8241	780.71777	1066.1299	-655.03357	693.23651	1062.4789	-363.98166	971.40479	774.68073	-300.01413	885.26111	808.66962	-383.87241	1177.8228	1169.0874	-280.86887	933.24054	1432.392	-244.71066	547.74744	1137.9706	-211.05516	556.77649	1241.2559	-446.71994	119.61341	1257.9229	-411.3696	126.07272	1302.7552
540	2.69	-720.57495	805.05237	1029.8176	-670.95203	715.60083	1029.0999	-342.11435	982.78802	773.13513	-286.2215	892.11853	807.92352	-377.6774	1181.3522	1167.2627	-290.43845	931.51672	1432.4519	-241.70677	548.97839	1137.6469	-211.55957	558.49072	1242.0374	-446.93869	121.37102	1252.8685	-412.88699	127.79026	1298.425
541	2.695	-730.71198	830.25275	991.57227	-684.73108	738.51294	994.07227	-321.15198	992.63635	773.06506	-273.65802	897.88293	807.89362	-372.56531	1184.2074	1166.4293	-300.10968	929.98596	1431.7861	-239.05588	550.5127	1137.3994	-212.86134	559.94202	1242.5476	-447.46973	122.78797	1247.7949	-414.45218	129.2036	1294.3999
542	2.7	-738.04834	855.55841	950.66498	-697.57275	761.99139	954.14661	-301.24072	1000.7802	774.0282	-262.77054	902.61584	808.36639	-367.6326	1186.8641	1165.3685	-309.67007	928.75409	1430.5801	-236.83188	551.41949	1136.7738	-214.75061	561.21704	1243.078	-447.78821	124.41438	1243.3068	-416.13522	130.55695	1290.5775
543	2.705	-742.81183	881.40308	908.5144	-707.65729	786.07227	912.57709	-282.73981	1007.3157	776.04749	-253.48688	906.52472	809.06689	-363.00229	1189.2891	1164.4103	-318.97247	927.76868	1427.9794	-235.38843	552.46112	1136.1472	-216.86707	562.50708	1243.9407	-448.64932	125.7451	1239.3937	-418.05582	131.73912	1287.1918
544	2.71	-745.12616	908.32025	864.62012	-714.62964	810.7005	870.71667	-265.87634	1012.6238	778.87006	-246.2411	909.80237	809.83362	-359.24466	1191.5819	1163.6787	-327.80969	927.01123	1424.5398	-234.50987	553.51007	1135.3273	-219.66911	563.62598	1244.6683	-450.2439	126.70864	1234.9923	-420.0806	132.8403	1284.1188
545	2.715	-743.84729	934.45612	819.46082	-718.66791	835.27289	824.56909	-251.46175	1016.295	782.60016	-240.59529	912.83606	810.26434	-355.93036	1193.8177	1162.9828	-335.96967	926.31018	1420.446	-234.8806	554.06769	1134.4293	-223.15245	564.29645	1244.549	-451.39426	127.60979	1231.7057	-422.25485	133.81908	1281.5188
546	2.72	-739.86292	960.45197	773.74933	-718.95172	859.05865	775.70337	-239.16707	1019.284	786.28925	-236.58626	915.68207	810.13513	-352.8349	1196.0063	1162.2988	-343.26489	925.66431	1415.8762	-235.01382	554.66797	1132.8683	-226.49982	564.95892	1244.4442	-453.07623	128.40454	1229.208	-424.2897	134.63855	1278.9243
547	2.725	-731.25238	985.8067	726.1134	-716.00977	884.87115	727.92438	-229.53242	1021.3468	789.60284	-233.94612	918.49121	809.19946	-350.30515	1198.3864	1161.6658	-349.5108	924.9715	1410.9199	-236.05772	555.11359	1131.3037	-229.4391	565.37659	1243.8433	-454.2005	128.94499	1226.0596	-426.27551	135.3111	1276.5223
548	2.73	-719.72607	1010.9406	678.42444	-708.75726	909.36652	678.12921	-222.63527	1023.1179	792.35889	-232.52136	921.42218	807.42834	-347.88766	1200.8112	1160.9974	-354.84167	924.31897	1405.8778	-237.26489	555.29266	1129.4344	-231.87798	565.46436	1242.4553	-455.51141	129.22014	1223.4164	-428.23785	135.86208	1274.2665
549	2.735	-704.21887	1035.3243	630.43304	-697.90179	932.99738	629.01147	-219.08856	1024.0824	794.70038	-232.60155	924.44629	804.88074	-345.91324	1203.3054	1160.2789	-359.12817	923.64392	1401.0079	-239.29756	555.61871	1127.6827	-233.69078	565.54919	1240.6589	-457.34006	129.24228	1221.675	-430.18762	136.1351	1272.0737
550	2.74	-684.92889	1059.2041	582.33789	-681.92224	956.94293	579.07635	-217.09164	1025.6938	795.77478	-233.6936	927.91138	801.24915	-344.19089	1205.748	1159.6295	-362.06345	922.99524	1396.8907	-240.65082	555.77881	1125.2229	-235.01993	565.55341	1238.3425	-458.55457	129.30692	1218.9452	-432.07214	136.41003	1270.0126
551	2.745	-661.39197	1082.1932	534.88745	-661.42297	979.39935	529.04114	-217.24583	1027.3433	795.81372	-236.22456	931.57281	796.85242	-342.76773	1208.0771	1159.0669	-363.98184	922.24744	1393.9039	-242.66933	555.85803	1122.968	-235.89476	565.57037	1235.6949	-459.96643	129.18613	1217.0396	-433.77512	136.46918	1268.0281
552	2.75	-633.54193	1103.7993	488.82037	-636.42273	1001.2926	481.12354	-219.79153	1028.4935	794.74658	-240.1378	935.74426	791.64478	-341.54974	1210.1089	1158.5901	-365.56366	921.31934	1392.7769	-245.08803	555.86932	1120.6593	-236.34834	565.6192	1232.799	-461.20737	129.36549	1214.9615	-435.34213	136.62125	1266.1404
553	2.755	-601.71783	1123.687	444.69955	-607.44745	1021.6682	435.99527	-224.09326	1030.2026	793.08063	-245.50444	940.75006	785.64526	-340.91632	1212.0253	1158.1632	-366.79373	920.52881	1391.5259	-246.95016	555.77844	1117.9995	-236.51945	565.74384	1229.9843	-462.18542	128.84106	1212.9011	-436.79547	136.55896	1264.5223
554	2.76	-565.65753	1141.4352	403.30283	-573.51721	1039.8396	392.84299	-229.65822	1033.2131	790.98492	-252.0735	946.53601	779.16394	-340.68112	1213.4231	1157.6101	-367.47064	919.96362	1390.1672	-248.73375	555.63654	1115.3434	-236.83499	565.68951	1226.9728	-463.55945	128.66228	1211.7177	-437.86807	136.54959	1263.0986
555	2.765	-526.68048	1156.411	365.96042	-536.53314	1055.3274	354.06351	-235.9942	1037.1532	788.12793	-260.24414	953.28113	772.40656	-341.15012	1214.5908	1157.0907	-367.44626	919.70062	1388.6329	-250.55423	555.17999	1112.7592	-236.95509	565.45886	1224.0967	-464.68628	128.16689	1210.5574	-438.88226	136.35417	1261.9248
556	2.77	-485.32065	1167.6008	332.89313	-496.70959	1066.5234	320.2988	-242.90932	1042.0298	784.27667	-269.59024	960.70227	765.52802	-342.32715	1215.2809	1156.3218	-366.92578	919.53198	1386.8744	-251.89981	554.49548	1110.0034	-236.98763	564.98071	1221.1312	-465.05737	127.88017	1209.3506	-439.56271	136.18248	1261.056
557	2.775	-444.61203	1174.4258	307.4523	-457.12769	1074.0159	294.78519	-250.52562	1048.5383	779.36816	-280.63474	968.80884	759.20154	-343.74033	1216.0034	1155.1875	-365.98804	919.45685	1384.981	-252.60118	553.66724	1106.9869	-237.02521	564.32825	1218.229	-465.9425	127.19223	1209.0447	-440.07266	135.88744	1260.4272
558	2.78	-413.56876	1180.1356	294.06	-433.48425	1081.3451	281.20776	-258.12659	1057.8617	773.63336	-291.36829	976.62634	752.66205	-346.23294	1215.9932	1153.5153	-364.79251	919.41168	1382.4161	-253.70375	552.71277	1104.1797	-237.11897	563.41077	1215.2424	-466.30743	126.72037	1208.5052	-440.43912	135.57011	1260.0692
559	2.785	-398.59964	1186.0797	287.7641	-423.07806	1087.2069	276.68408	-262.87857	1071.3336	768.16425	-301.81839	982.44861	747.05054	-348.92087	1216.1797	1151.1716	-363.15863	919.40393	1379.9709	-254.07129	551.49835	1101.0876	-237.02931	562.30078	1212.1608	-466.84433	125.9823	1208.2869	-440.73346	135.19748	1259.7863
560	2.79	-395.7597	1188.5745	283.94916	-423.54099	1090.8654	275.07108	-265.88873	1084.6558	762.57092	-310.63055	987.11853	741.3382	-352.13699	1216.5627	1148.3021	-361.33258	919.23114	1377.0093	-254.35748	550.18292	1098.0046	-236.82808	561.34113	1209.0118	-467.11298	125.6247	1208.4558	-440.89911	134.84358	1259.7291
561	2.795	-401.64798	1188.312	282.18784	-427.95099	1087.6509	277.55762	-265.61411	1090.0269	758.72968	-311.18039	994.93732	738.54126	-356.3165	1216.2693	1144.8431	-359.15805	919.26477	1373.9248	-254.12422	548.69751	1094.582	-236.73448	560.34344	1205.3192	-467.65881	125.1188	1209.1031	-440.69324	134.76711	1259.8191
562	2.8	-412.87628	1184.3007	280.24411	-429.72147	1081.9674	276.99103	-263.33154	1093.9781	756.55188	-301.78741	998.94702	733.55481	-360.47299	1216.3242	1141.1006	-356.79453	919.15216	1370.4878	-253.99426	546.96698	1091.0206	-236.46678	559.54694	1201.3427	-467.8158	124.74979	1209.2089	-440.20132	134.82596	1259.8279
563	2.805	-426.61456	1177.5538	278.39694	-429.17819	1073.6381	275.39563	-260.96063	1097.2062	754.86871	-293.83609	1004.1024	731.31335	-365.21426	1216.0648	1137.3101	-354.35904	918.93768	1366.7494	-253.00961	545.37018	1086.8464	-236.22209	558.78381	1196.9905	-467.31873	125.01646	1209.2798	-439.4512	135.07704	1259.6304
564	2.81	-439.89423	1169.2744	277.44421	-425.64331	1065.5159	272.73935	-259.46213	1099.5132	754.34607	-288.19266	1011.0314	731.13812	-370.10083	1215.0217	1133.5123	-351.91306	918.47089	1362.7424	-252.63295	543.91931	1082.6001	-235.74641	558.23303	1192.3326	-467.44791	124.52066	1209.4218	-438.64557	135.26038	1259.3843
